<?xml version="1.0" encoding="UTF-8" standalone="no"?>
<svg
   xmlns:dc="http://purl.org/dc/elements/1.1/"
   xmlns:cc="http://creativecommons.org/ns#"
   xmlns:rdf="http://www.w3.org/1999/02/22-rdf-syntax-ns#"
   xmlns:svg="http://www.w3.org/2000/svg"
   xmlns="http://www.w3.org/2000/svg"
   xmlns:xlink="http://www.w3.org/1999/xlink"
   xmlns:sodipodi="http://sodipodi.sourceforge.net/DTD/sodipodi-0.dtd"
   xmlns:inkscape="http://www.inkscape.org/namespaces/inkscape"
   width="630px"
   height="200px"
   viewBox="0 0 630 200"
   version="1.1"
   id="svg8"
   inkscape:version="1.0.2-2 (e86c870879, 2021-01-15)"
   sodipodi:docname="os-on-gh.svg"
   inkscape:export-filename="E:\Users\Alessandro\Desktop\open-source-on-gh.png"
   inkscape:export-xdpi="96"
   inkscape:export-ydpi="96">
  <defs
     id="defs2">
    <linearGradient
       inkscape:collect="always"
       id="linearGradient1002">
      <stop
         style="stop-color:#fafafa;stop-opacity:1;"
         offset="0"
         id="stop998" />
    </linearGradient>
    <linearGradient
       inkscape:collect="always"
       xlink:href="#linearGradient1002"
       id="textColor"
       x1="88.109375"
       y1="52.981445"
       x2="541.89062"
       y2="52.981445"
       gradientUnits="userSpaceOnUse" />
  </defs>
  <metadata
     id="metadata15">
    <rdf:RDF>
      <cc:Work
         rdf:about="">
        <dc:format>image/svg+xml</dc:format>
        <dc:type
           rdf:resource="http://purl.org/dc/dcmitype/StillImage" />
      </cc:Work>
    </rdf:RDF>
  </metadata>
  <sodipodi:namedview
     id="base"
     pagecolor="#ffffff"
     bordercolor="#666666"
     borderopacity="1.0"
     inkscape:pageopacity="0.0"
     inkscape:pageshadow="2"
     inkscape:zoom="1.4"
     inkscape:cx="353.47897"
     inkscape:cy="54.817069"
     inkscape:document-units="px"
     inkscape:current-layer="layer1"
     inkscape:document-rotation="0"
     showgrid="false"
     inkscape:window-width="1920"
     inkscape:window-height="1027"
     inkscape:window-x="1912"
     inkscape:window-y="-8"
     inkscape:window-maximized="1" />
  <g
     inkscape:label="Layer 1"
     inkscape:groupmode="layer"
     id="layer1">
    <rect
       style="fill:none;fill-opacity:1;fill-rule:nonzero;stroke:none;stroke-width:0;stroke-miterlimit:4;stroke-dasharray:none;stroke-opacity:0.988235"
       id="background"
       width="100%"
       height="100%"
       x="0"
       y="0" />
    <g
       id="g20"
       transform="translate(2.4998478e-6,1.2963683e-4)"
       style="fill:url(#textColor);fill-opacity:1">
      <path
         id="openSourceOn"
         d="m 111.70703,24.054688 c -3.51995,0 -6.72748,0.600801 -9.625,1.802734 -2.897516,1.180471 -5.388781,2.834138 -7.470702,4.958984 -2.060457,2.124848 -3.65933,4.645472 -4.796875,7.564453 -1.137544,2.897518 -1.705078,6.054165 -1.705078,9.466797 0,3.412634 0.567534,6.577113 1.705078,9.496094 1.137545,2.897518 2.736418,5.408356 4.796875,7.533203 2.081921,2.124847 4.573186,3.788301 7.470702,4.990235 2.89752,1.18047 6.10505,1.771484 9.625,1.771484 3.54141,0 6.76068,-0.591014 9.6582,-1.771484 2.89752,-1.201934 5.37704,-2.865388 7.4375,-4.990235 2.06046,-2.124847 3.64955,-4.635685 4.76563,-7.533203 1.13754,-2.918981 1.70508,-6.08346 1.70508,-9.496094 0,-2.275088 -0.25637,-4.443448 -0.77149,-6.503906 -0.49364,-2.060457 -1.22361,-3.970495 -2.18945,-5.730469 -0.96584,-1.759974 -2.14592,-3.34906 -3.54102,-4.765625 -1.37364,-1.438028 -2.9314,-2.649416 -4.66992,-3.636718 -1.73851,-1.008766 -3.64855,-1.781783 -5.73047,-2.31836 -2.08192,-0.558041 -4.30312,-0.83789 -6.66406,-0.83789 z m 166.99414,0 c -2.44679,-10e-7 -4.61515,0.375744 -6.5039,1.126953 -1.88876,0.751208 -3.47784,1.74928 -4.76563,2.99414 -1.28778,1.24486 -2.27412,2.671518 -2.96094,4.28125 -0.66536,1.609733 -0.99804,3.2634 -0.99804,4.958985 0,2.124847 0.30137,3.917462 0.90234,5.376953 0.62243,1.438027 1.43655,2.639629 2.44531,3.605469 1.00876,0.965839 2.15753,1.748642 3.44531,2.349609 1.28779,0.600967 2.59703,1.11566 3.92774,1.544922 1.33071,0.429262 2.63995,0.826533 3.92773,1.191406 1.28779,0.364873 2.43656,0.816938 3.44532,1.353516 1.00876,0.515114 1.81309,1.158969 2.41406,1.93164 0.62243,0.772672 0.93359,1.770744 0.93359,2.994141 0,2.189236 -0.67517,3.872264 -2.02734,5.052734 -1.35218,1.159008 -3.26222,1.740235 -5.73047,1.740235 -1.60973,0 -2.99529,-0.21527 -4.1543,-0.644532 -1.13754,-0.450724 -2.13562,-0.94389 -2.99414,-1.480468 -0.85852,-0.536578 -1.59827,-1.019957 -2.2207,-1.449219 -0.62243,-0.450725 -1.2017,-0.675781 -1.73828,-0.675781 -0.38634,0 -0.7523,0.107635 -1.09571,0.322265 -0.34341,0.193168 -0.62131,0.439751 -0.83593,0.740235 l -2.54492,4.152343 c 0.90144,0.922914 1.93279,1.760511 3.09179,2.511719 1.15902,0.751209 2.39388,1.395063 3.70313,1.931641 1.33071,0.536577 2.71431,0.943635 4.15234,1.222656 1.43803,0.300483 2.89795,0.451172 4.37891,0.451172 2.57557,0 4.86135,-0.385532 6.85742,-1.158203 1.99607,-0.794135 3.68105,-1.868528 5.05469,-3.220703 1.3951,-1.373639 2.44601,-2.972512 3.15429,-4.796875 0.72974,-1.845827 1.09375,-3.820445 1.09375,-5.923829 0,-1.931679 -0.31116,-3.573605 -0.93359,-4.925781 -0.60097,-1.352174 -1.4053,-2.489196 -2.41406,-3.412109 -1.00877,-0.944377 -2.15753,-1.717393 -3.44532,-2.31836 -1.28778,-0.62243 -2.60681,-1.158649 -3.95898,-1.609374 -1.35217,-0.472189 -2.67315,-0.912514 -3.96094,-1.320313 -1.28778,-0.407799 -2.43459,-0.869651 -3.44336,-1.384766 -1.00876,-0.515114 -1.82484,-1.137442 -2.44726,-1.867187 -0.60097,-0.729745 -0.90235,-1.64171 -0.90235,-2.736328 0,-0.858524 0.1507,-1.641328 0.45118,-2.34961 0.30048,-0.729745 0.75059,-1.352072 1.35156,-1.867187 0.62243,-0.515114 1.38565,-0.912386 2.28711,-1.191406 0.90144,-0.300484 1.95236,-0.451172 3.1543,-0.451172 1.3307,0 2.47947,0.172215 3.44531,0.515625 0.9873,0.321946 1.84643,0.68595 2.57617,1.09375 0.72975,0.407798 1.35207,0.783544 1.86719,1.126953 0.53658,0.321947 1.02974,0.482422 1.48047,0.482422 0.42926,0 0.78348,-0.09589 1.0625,-0.289063 0.30048,-0.21463 0.58033,-0.547321 0.83789,-0.998047 l 2.15625,-4.08789 c -1.6312,-1.545344 -3.60582,-2.748898 -5.92383,-3.607422 -2.31802,-0.858524 -4.85038,-1.287109 -7.59766,-1.287109 z m -166.99414,7.373046 c 2.27509,0 4.31429,0.375745 6.11719,1.126954 1.82437,0.751208 3.3704,1.835388 4.63672,3.251953 1.26632,1.416564 2.24287,3.144599 2.92968,5.183593 0.68683,2.017532 1.0293,4.303314 1.0293,6.857422 0,2.55411 -0.34247,4.849678 -1.0293,6.888672 -0.68681,2.017531 -1.66336,3.733826 -2.92968,5.150391 -1.26632,1.395101 -2.81235,2.469494 -4.63672,3.220703 -1.8029,0.751209 -3.8421,1.126953 -6.11719,1.126953 -2.27509,0 -4.32407,-0.375744 -6.14844,-1.126953 -1.8029,-0.751209 -3.34893,-1.825602 -4.63671,-3.220703 -1.266325,-1.416565 -2.242873,-3.13286 -2.929692,-5.150391 -0.68682,-2.038994 -1.029297,-4.334562 -1.029297,-6.888672 0,-2.554108 0.342477,-4.83989 1.029297,-6.857422 0.686819,-2.038994 1.663367,-3.767029 2.929692,-5.183593 1.28778,-1.416565 2.83381,-2.500745 4.63671,-3.251953 1.82437,-0.751209 3.87335,-1.126954 6.14844,-1.126954 z m 47.58399,6.052735 c -2.31802,0 -4.33569,0.471639 -6.05274,1.416015 -1.71705,0.944377 -3.25134,2.179245 -4.60351,3.703125 l -0.64454,-3.058593 c -0.32194,-0.96584 -0.99711,-1.449219 -2.02734,-1.449219 h -4.86133 v 43.816406 h 7.95117 V 68.386719 c 1.03023,1.008766 2.20052,1.803309 3.50977,2.382812 1.30925,0.558041 2.8866,0.837891 4.73242,0.837891 2.16778,0 4.12087,-0.430539 5.85938,-1.289063 1.75998,-0.879986 3.25121,-2.091375 4.47461,-3.636718 1.24486,-1.545344 2.19988,-3.371226 2.86523,-5.47461 0.66536,-2.103384 0.99805,-4.389166 0.99805,-6.857422 0,-2.70435 -0.29943,-5.097766 -0.90039,-7.179687 -0.57951,-2.103384 -1.41711,-3.862732 -2.51172,-5.279297 -1.07316,-1.438027 -2.36087,-2.531994 -3.86328,-3.283203 -1.48096,-0.751208 -3.12288,-1.126953 -4.92578,-1.126953 z m 229.45117,0 c -1.93168,0 -3.60688,0.567534 -5.02344,1.705078 -1.41657,1.116081 -2.6397,2.662114 -3.66992,4.636719 l -0.48242,-3.734375 c -0.10732,-0.751209 -0.32259,-1.265902 -0.64453,-1.544922 -0.32195,-0.300484 -0.88949,-0.451172 -1.70508,-0.451172 h -4.66992 v 33.03125 H 380.5 V 50.777344 c 0.36487,-0.879988 0.7504,-1.664743 1.1582,-2.351563 0.42926,-0.686819 0.91264,-1.266093 1.44922,-1.738281 0.55804,-0.493651 1.18037,-0.869396 1.86719,-1.126953 0.68682,-0.257557 1.46962,-0.386719 2.34961,-0.386719 0.60097,0 1.21351,0.05479 1.83594,0.16211 0.64389,0.107315 1.12727,0.160156 1.44922,0.160156 0.34341,0 0.61152,-0.07437 0.80468,-0.22461 0.21463,-0.171705 0.3751,-0.451555 0.48242,-0.83789 l 0.51563,-5.955078 c -0.92291,-0.665356 -2.14604,-0.998047 -3.66992,-0.998047 z m -196.99805,0.0957 c -2.46825,0 -4.69141,0.430539 -6.66602,1.289062 -1.95313,0.858524 -3.61659,2.026859 -4.99023,3.507813 -1.35217,1.459491 -2.39135,3.187525 -3.12109,5.183594 -0.72975,1.974604 -1.09571,4.088171 -1.09571,6.341797 0,2.897518 0.4188,5.453363 1.25586,7.664062 0.83706,2.189236 1.98582,4.034693 3.44532,5.537109 1.45949,1.480954 3.17579,2.608188 5.15039,3.38086 1.9746,0.751208 4.10969,1.126953 6.40625,1.126953 1.159,0 2.35082,-0.08611 3.57421,-0.257813 1.24486,-0.171704 2.4582,-0.461342 3.63868,-0.86914 1.20193,-0.429262 2.34874,-0.988962 3.44336,-1.675781 1.09461,-0.708283 2.08289,-1.577194 2.96289,-2.607422 l -2.28516,-2.896485 c -0.32195,-0.493651 -0.81706,-0.740234 -1.48242,-0.740234 -0.49365,0 -1.00835,0.148735 -1.54492,0.449219 -0.51512,0.300483 -1.1257,0.633174 -1.83399,0.998046 -0.68682,0.364873 -1.50289,0.697564 -2.44726,0.998047 -0.92292,0.300484 -2.02862,0.451172 -3.31641,0.451172 -1.28779,0 -2.46786,-0.193743 -3.54101,-0.580078 -1.0517,-0.407799 -1.96366,-1.0086 -2.73633,-1.802734 -0.77267,-0.815598 -1.395,-1.835197 -1.86719,-3.058594 -0.47219,-1.24486 -0.77357,-2.714572 -0.90234,-4.410156 h 20.44336 c 0.72974,0 1.22291,-0.20353 1.48046,-0.611328 0.25756,-0.429262 0.38672,-1.245332 0.38672,-2.447266 0,-2.382404 -0.364,-4.49597 -1.09375,-6.341797 -0.70828,-1.867289 -1.69656,-3.434849 -2.96289,-4.701172 -1.26632,-1.287786 -2.77909,-2.264331 -4.53906,-2.929687 -1.75998,-0.665356 -3.6798,-0.998047 -5.76172,-0.998047 z m 37.95703,0 c -1.11608,0 -2.14742,0.119375 -3.09179,0.355469 -0.94438,0.21463 -1.83482,0.525795 -2.67188,0.933593 -0.8156,0.386336 -1.5984,0.867762 -2.34961,1.447266 -0.72975,0.558041 -1.42839,1.170582 -2.09375,1.835938 l -0.54687,-2.607422 c -0.32195,-0.96584 -0.99711,-1.449219 -2.02735,-1.449219 h -4.86133 v 33.03125 h 7.95118 V 47.234375 c 1.07315,-1.073155 2.21017,-1.920539 3.41211,-2.542969 1.20193,-0.62243 2.48964,-0.933594 3.86328,-0.933594 1.88875,0 3.29583,0.557747 4.21875,1.673829 0.92291,1.094618 1.38476,2.650437 1.38476,4.667968 v 21.023438 h 7.95117 V 50.099609 c 0,-1.845826 -0.24658,-3.530807 -0.74023,-5.054687 -0.47219,-1.545343 -1.18062,-2.864366 -2.125,-3.958984 -0.92291,-1.116081 -2.08146,-1.975205 -3.47656,-2.576172 -1.3951,-0.62243 -2.99398,-0.933594 -4.79688,-0.933594 z m 84.15625,0 c -2.46825,0 -4.71098,0.397271 -6.72851,1.191406 -2.01754,0.794135 -3.74557,1.921369 -5.1836,3.38086 -1.41656,1.45949 -2.52227,3.240366 -3.3164,5.34375 -0.77268,2.103384 -1.15821,4.453746 -1.15821,7.050781 0,2.618498 0.38553,4.980601 1.15821,7.083984 0.79413,2.103384 1.89984,3.894047 3.3164,5.375 1.43803,1.480954 3.16606,2.619928 5.1836,3.414063 2.01753,0.794134 4.26026,1.191406 6.72851,1.191406 2.4468,0 4.668,-0.397272 6.66406,-1.191406 2.01754,-0.794135 3.73383,-1.933109 5.1504,-3.414063 1.43802,-1.480953 2.54373,-3.271616 3.3164,-5.375 0.77267,-2.103383 1.16016,-4.465486 1.16016,-7.083984 0,-2.597035 -0.38749,-4.947398 -1.16016,-7.050781 -0.77267,-2.103384 -1.87838,-3.88426 -3.3164,-5.34375 -1.41657,-1.459491 -3.13286,-2.586725 -5.1504,-3.38086 -1.99606,-0.794135 -4.21726,-1.191406 -6.66406,-1.191406 z m 96.03516,0 c -2.59704,0 -4.8926,0.430539 -6.88867,1.289062 -1.99607,0.858524 -3.66931,2.048386 -5.02149,3.572266 -1.35218,1.502417 -2.38351,3.295032 -3.0918,5.376953 -0.68681,2.060457 -1.02929,4.303186 -1.02929,6.728516 0,2.70435 0.38553,5.119294 1.1582,7.24414 0.79413,2.103384 1.86658,3.88426 3.21875,5.34375 1.35218,1.459491 2.92952,2.576938 4.73242,3.34961 1.8029,0.751208 3.72468,1.126953 5.76368,1.126953 1.159,0 2.31755,-0.08611 3.47656,-0.257813 1.18047,-0.171704 2.31944,-0.461342 3.41406,-0.86914 1.11608,-0.429262 2.18852,-0.988962 3.21875,-1.675781 1.03023,-0.708283 1.98525,-1.577194 2.86523,-2.607422 l -2.28515,-2.896485 c -0.32195,-0.493651 -0.80533,-0.740234 -1.44922,-0.740234 -0.49365,0 -0.94376,0.160475 -1.35156,0.482422 -0.38634,0.300483 -0.84819,0.642961 -1.38477,1.029297 -0.53658,0.364872 -1.20196,0.709303 -1.99609,1.03125 -0.77268,0.300483 -1.79228,0.451172 -3.0586,0.451172 -1.26632,0 -2.40334,-0.236797 -3.41211,-0.708985 -1.00876,-0.493651 -1.86788,-1.202087 -2.57617,-2.125 -0.70828,-0.944376 -1.25624,-2.102924 -1.64258,-3.476562 -0.36487,-1.373638 -0.54687,-2.941198 -0.54687,-4.701172 0,-1.695585 0.17222,-3.208351 0.51562,-4.539063 0.34342,-1.352175 0.85811,-2.500936 1.54493,-3.445312 0.70828,-0.944377 1.58893,-1.662599 2.64062,-2.15625 1.05169,-0.515114 2.27482,-0.773438 3.66992,-0.773438 1.09462,0 2.00658,0.129162 2.73633,0.386719 0.75121,0.236094 1.39507,0.515944 1.93164,0.837891 0.53658,0.300483 0.99843,0.57838 1.38477,0.835937 0.38634,0.236094 0.78361,0.353516 1.1914,0.353516 0.42927,0 0.75022,-0.08416 0.96485,-0.25586 0.23609,-0.171704 0.47288,-0.408501 0.70898,-0.708984 l 2.0918,-2.898437 c -1.48095,-1.480954 -3.15419,-2.617975 -5.02149,-3.41211 -1.84582,-0.794135 -4.0044,-1.191406 -6.47265,-1.191406 z m 30.26367,0 c -2.46825,0 -4.68946,0.430539 -6.66406,1.289062 -1.95314,0.858524 -3.6166,2.026859 -4.99024,3.507813 -1.35217,1.459491 -2.3933,3.187525 -3.12304,5.183594 -0.72975,1.974604 -1.09375,4.088171 -1.09375,6.341797 0,2.897518 0.41684,5.453363 1.2539,7.664062 0.83706,2.189236 1.98582,4.034693 3.44532,5.537109 1.45949,1.480954 3.17774,2.608188 5.15234,3.38086 1.97461,0.751208 4.1097,1.126953 6.40625,1.126953 1.15901,0 2.35082,-0.08611 3.57422,-0.257813 1.24485,-0.171704 2.45624,-0.461342 3.63672,-0.86914 1.20193,-0.429262 2.35069,-0.988962 3.44531,-1.675781 1.09462,-0.708283 2.08095,-1.577194 2.96094,-2.607422 L 451.875,63.300781 c -0.32195,-0.493651 -0.81511,-0.740234 -1.48047,-0.740234 -0.49365,0 -1.00835,0.148735 -1.54492,0.449219 -0.51511,0.300483 -1.12765,0.633174 -1.83594,0.998046 -0.68682,0.364873 -1.50289,0.697564 -2.44726,0.998047 -0.92292,0.300484 -2.02862,0.451172 -3.31641,0.451172 -1.28779,0 -2.46786,-0.193743 -3.54102,-0.580078 -1.05169,-0.407799 -1.96366,-1.0086 -2.73632,-1.802734 -0.77268,-0.815598 -1.395,-1.835197 -1.86719,-3.058594 -0.47219,-1.24486 -0.77162,-2.714572 -0.90039,-4.410156 h 20.44336 c 0.72974,0 1.22291,-0.20353 1.48047,-0.611328 0.25756,-0.429262 0.38671,-1.245332 0.38671,-2.447266 10e-6,-2.382404 -0.36595,-4.49597 -1.0957,-6.341797 -0.70828,-1.867289 -1.69461,-3.434849 -2.96094,-4.701172 -1.26632,-1.287786 -2.77908,-2.264331 -4.53906,-2.929687 -1.75998,-0.665356 -3.68175,-0.998047 -5.76367,-0.998047 z m 50.57813,0 c -2.46827,0 -4.71099,0.397271 -6.72852,1.191406 -2.01753,0.794135 -3.74557,1.921369 -5.18359,3.38086 -1.41657,1.45949 -2.52228,3.240366 -3.31641,5.34375 -0.77267,2.103384 -1.1582,4.453746 -1.1582,7.050781 0,2.618498 0.38553,4.980601 1.1582,7.083984 0.79413,2.103384 1.89984,3.894047 3.31641,5.375 1.43802,1.480954 3.16606,2.619928 5.18359,3.414063 2.01753,0.794134 4.26025,1.191406 6.72852,1.191406 2.44679,0 4.66799,-0.397272 6.66406,-1.191406 2.01753,-0.794135 3.73383,-1.933109 5.15039,-3.414063 1.43802,-1.480953 2.54373,-3.271616 3.3164,-5.375 0.77268,-2.103383 1.15821,-4.465486 1.15821,-7.083984 0,-2.597035 -0.38553,-4.947398 -1.15821,-7.050781 -0.77267,-2.103384 -1.87838,-3.88426 -3.3164,-5.34375 -1.41656,-1.459491 -3.13286,-2.586725 -5.15039,-3.38086 -1.99607,-0.794135 -4.21727,-1.191406 -6.66406,-1.191406 z m 40.01757,0 c -1.11608,0 -2.14741,0.119375 -3.09179,0.355469 -0.94438,0.21463 -1.83482,0.525795 -2.67188,0.933593 -0.8156,0.386336 -1.5984,0.867762 -2.34961,1.447266 -0.72974,0.558041 -1.42644,1.170582 -2.09179,1.835938 l -0.54883,-2.607422 c -0.32195,-0.96584 -0.99711,-1.449219 -2.02735,-1.449219 h -4.86132 v 33.03125 h 7.95117 V 47.234375 c 1.07315,-1.073155 2.21213,-1.920539 3.41406,-2.542969 1.20193,-0.62243 2.48964,-0.933594 3.86328,-0.933594 1.88875,0 3.29388,0.557747 4.2168,1.673829 0.92291,1.094618 1.38476,2.650437 1.38476,4.667968 v 21.023438 h 7.95117 V 50.099609 c 10e-6,-1.845826 -0.24658,-3.530807 -0.74023,-5.054687 -0.47219,-1.545343 -1.18062,-2.864366 -2.125,-3.958984 -0.92291,-1.116081 -2.08146,-1.975205 -3.47656,-2.576172 -1.3951,-0.62243 -2.99398,-0.933594 -4.79688,-0.933594 z m -194.84179,0.515625 v 20.990234 c 0,1.845827 0.23679,3.542548 0.70898,5.087891 0.49365,1.52388 1.21188,2.842903 2.15625,3.958984 0.94437,1.116082 2.10292,1.984992 3.47656,2.607422 1.3951,0.600967 2.99398,0.902344 4.79688,0.902344 2.2107,0 4.13247,-0.418799 5.76367,-1.25586 1.63119,-0.858524 3.12244,-1.974017 4.47461,-3.347656 l 0.54687,2.638672 c 0.27902,0.96584 0.9444,1.449219 1.9961,1.449219 h 4.86133 v -33.03125 h -7.95118 v 23.888672 c -1.07315,1.073155 -2.21017,1.920538 -3.41211,2.542969 -1.20193,0.600966 -2.48964,0.902343 -3.86328,0.902343 -1.86728,0 -3.27437,-0.54796 -4.21875,-1.642578 -0.92291,-1.116081 -1.38281,-2.68364 -1.38281,-4.701172 V 38.091797 Z M 191.9043,43.275391 c 1.18046,0 2.20985,0.203528 3.08984,0.611328 0.90145,0.386335 1.64316,0.922555 2.22266,1.609375 0.5795,0.686819 1.00809,1.493102 1.28711,2.416015 0.30048,0.90145 0.45117,1.866256 0.45117,2.896485 h -15.00196 c 0.36488,-2.403867 1.20052,-4.261063 2.50977,-5.570313 1.33071,-1.309249 3.14485,-1.96289 5.44141,-1.96289 z m 248.41211,0 c 1.18046,0 2.21181,0.203528 3.09179,0.611328 0.90146,0.386335 1.64121,0.922555 2.22071,1.609375 0.5795,0.686819 1.01004,1.493102 1.28906,2.416015 0.30048,0.90145 0.44922,1.866256 0.44922,2.896485 h -15.00196 c 0.36488,-2.403867 1.20248,-4.261063 2.51172,-5.570313 1.33072,-1.309249 3.1429,-1.96289 5.43946,-1.96289 z m -126.45899,0.386718 c 2.74728,0 4.77474,0.933492 6.08399,2.800782 1.33071,1.867289 1.99609,4.581656 1.99609,8.144531 0,3.562874 -0.66538,6.267454 -1.99609,8.113281 -1.30925,1.845827 -3.33671,2.769531 -6.08399,2.769531 -2.7902,0 -4.86266,-0.923704 -6.21484,-2.769531 -1.33071,-1.867289 -1.9961,-4.57187 -1.9961,-8.113281 0,-3.541411 0.66539,-6.245991 1.9961,-8.113281 1.35218,-1.888753 3.42464,-2.832032 6.21484,-2.832032 z m 176.87696,0 c 2.74727,0 4.77473,0.933492 6.08398,2.800782 1.33071,1.867289 1.99609,4.581656 1.99609,8.144531 0,3.562874 -0.66538,6.267454 -1.99609,8.113281 -1.30925,1.845827 -3.33671,2.769531 -6.08398,2.769531 -2.79021,0 -4.86268,-0.923704 -6.21485,-2.769531 -1.33071,-1.867289 -1.99609,-4.57187 -1.99609,-8.113281 0,-3.541411 0.66538,-6.245991 1.99609,-8.113281 1.35217,-1.888753 3.42464,-2.832032 6.21485,-2.832032 z m -334.17969,0.0957 c 1.05169,0 1.98518,0.193743 2.80078,0.580079 0.83706,0.386335 1.5455,0.996923 2.125,1.833984 0.57951,0.837061 1.01983,1.932981 1.32031,3.285156 0.32195,1.330712 0.48242,2.960899 0.48242,4.892578 0,1.910216 -0.182,3.57367 -0.54687,4.990235 -0.36487,1.395101 -0.89131,2.553649 -1.57813,3.476562 -0.66536,0.922914 -1.48142,1.609822 -2.44726,2.060547 -0.96584,0.450725 -2.05002,0.677735 -3.25196,0.677735 -1.24486,0 -2.4034,-0.22701 -3.47656,-0.677735 -1.05169,-0.450725 -2.02824,-1.221788 -2.92969,-2.316406 V 47.75 c 1.03023,-1.266323 2.12615,-2.242869 3.28516,-2.929688 1.15901,-0.708282 2.56414,-1.062499 4.2168,-1.0625 z"
         style="font-style:normal;font-variant:normal;font-weight:bold;font-stretch:normal;font-size:64.3893px;line-height:1.25;font-family:Lato;-inkscape-font-specification:'Lato Bold';" />
      <g
         id="gh"
         transform="translate(36.214825,11.598939)">
        <path
           fill-rule="evenodd"
           d="m 146.53824,80.437633 c -23.76604,0 -43.01544,19.249405 -43.01544,43.015397 0,19.03434 12.31316,35.11137 29.4118,40.81091 2.15077,0.37639 2.95731,-0.91409 2.95731,-2.04323 0,-1.02162 -0.0537,-4.40909 -0.0537,-8.01163 -10.80764,1.98946 -13.60364,-2.6347 -14.46395,-5.05431 -0.48392,-1.2367 -2.58093,-5.05432 -4.40907,-6.07593 -1.50555,-0.80655 -3.65633,-2.79601 -0.0537,-2.84978 3.38747,-0.0537 5.80709,3.11862 6.61363,4.40908 3.87139,6.50608 10.05485,4.67793 12.52825,3.54878 0.37638,-2.79601 1.50553,-4.67794 2.74223,-5.75332 -9.57093,-1.07539 -19.57202,-4.78547 -19.57202,-21.23885 0,-4.67793 1.66684,-8.54932 4.40908,-11.5604 -0.43016,-1.07539 -1.93569,-5.48446 0.43016,-11.39909 0,0 3.60253,-1.129152 11.82924,4.40908 3.44123,-0.96785 7.09754,-1.45177 10.75386,-1.45177 3.6563,0 7.31263,0.48392 10.75386,1.45177 8.22671,-5.592 11.82925,-4.40908 11.82925,-4.40908 2.36584,5.91463 0.8603,10.3237 0.43014,11.39909 2.74224,3.01108 4.40909,6.8287 4.40909,11.5604 0,16.50715 -10.05486,20.16346 -19.62579,21.23885 1.55931,1.34423 2.90354,3.92516 2.90354,7.95786 0,5.75331 -0.0537,10.37747 -0.0537,11.82925 0,1.12914 0.80653,2.47339 2.95731,2.04323 a 43.08534,43.08534 0 0 0 29.30426,-40.81091 c 0,-23.765992 -19.2494,-43.015397 -43.01543,-43.015397 z"
           id="path20" />
        <path
           fill-rule="evenodd"
           d="m 314.81494,143.57272 h -0.10658 c 0.0479,0 0.0799,0.0533 0.12789,0.0585 h 0.032 l -0.0533,-0.0533 z m 0.0213,0.0585 c -0.49555,0.005 -1.74242,0.26642 -3.05854,0.26642 -4.1562,0 -5.59488,-1.91825 -5.59488,-4.42262 v -16.6834 h 8.47225 c 0.47956,0 0.85255,-0.42628 0.85255,-1.01241 v -9.05836 c 0,-0.47956 -0.42627,-0.90584 -0.85255,-0.90584 h -8.47225 v -11.24304 c 0,-0.42628 -0.26643,-0.692703 -0.74599,-0.692703 h -11.50947 c -0.47956,0 -0.74599,0.266423 -0.74599,0.692703 v 11.56276 c 0,0 -5.80801,1.43868 -6.18101,1.49197 -0.42628,0.10656 -0.69269,0.47955 -0.69269,0.90583 v 7.2467 c 0,0.58614 0.42628,1.01241 0.90583,1.01241 h 5.9146 v 17.47735 c 0,13.00144 9.05837,14.33356 15.23938,14.33356 2.82409,0 6.2343,-0.90584 6.76715,-1.17226 0.3197,-0.10658 0.47956,-0.47957 0.47956,-0.85256 v -7.99269 a 0.94313728,0.94313728 0 0 0 -0.77795,-0.95912 z M 441.0994,131.90333 c 0,-9.64451 -3.88977,-10.92334 -7.99269,-10.49706 -3.19707,0.21314 -5.75473,1.81168 -5.75473,1.81168 v 18.75616 c 0,0 2.61095,1.81169 6.50072,1.91826 5.48831,0.15985 7.2467,-1.81168 7.2467,-11.98904 z m 12.94815,-0.85256 c 0,18.27662 -5.91458,23.49851 -16.2518,23.49851 -8.73867,0 -13.42772,-4.42261 -13.42772,-4.42261 0,0 -0.21314,2.45108 -0.47955,2.77078 -0.15985,0.31972 -0.42627,0.42628 -0.74598,0.42628 h -7.88612 c -0.53285,0 -1.01241,-0.42628 -1.01241,-0.90583 l 0.10657,-59.199175 c 0,-0.479565 0.42628,-0.905845 0.90584,-0.905845 H 426.606 c 0.47955,0 0.90583,0.42628 0.90583,0.905845 v 20.088285 c 0,0 4.36934,-2.82408 10.76349,-2.82408 l -0.0533,-0.10657 c 6.39414,0 15.82552,2.3978 15.82552,20.67441 z m -46.46416,-19.23573 h -11.18976 c -0.58613,0 -0.90584,0.42628 -0.90584,1.01241 v 28.98682 c 0,0 -2.93066,2.0781 -6.927,2.0781 -3.99634,0 -5.1686,-1.81168 -5.1686,-5.80803 v -25.31018 c 0,-0.47956 -0.42627,-0.90583 -0.90584,-0.90583 h -11.4029 c -0.47956,0 -0.90584,0.42627 -0.90584,0.90583 v 27.22843 c 0,11.72261 6.554,14.65326 15.5591,14.65326 7.40656,0 13.42771,-4.10291 13.42771,-4.10291 0,0 0.26643,2.0781 0.42628,2.39781 0.10657,0.26642 0.47957,0.47956 0.85255,0.47956 h 7.14014 c 0.58613,0 0.90584,-0.42628 0.90584,-0.90584 l 0.10657,-39.80359 c 0,-0.47956 -0.42628,-0.90584 -1.01241,-0.90584 z m -126.28448,-0.0533 h -11.3496 c -0.47957,0 -0.90584,0.47956 -0.90584,1.0657 v 39.11088 c 0,1.06569 0.6927,1.43869 1.59853,1.43869 h 10.23065 c 1.06569,0 1.33211,-0.47957 1.33211,-1.43869 v -39.27074 c 0,-0.47956 -0.42628,-0.90584 -0.90584,-0.90584 z m -5.59487,-18.010192 c -4.10292,0 -7.35328,3.25036 -7.35328,7.353272 0,4.10292 3.25036,7.35327 7.35328,7.35327 3.99634,0 7.2467,-3.25035 7.2467,-7.35327 0,-4.102912 -3.25036,-7.353272 -7.2467,-7.353272 z m 87.86628,-1.332108 h -11.24303 c -0.47956,0 -0.90583,0.426272 -0.90583,0.905828 V 115.11868 H 333.78425 V 93.325278 c 0,-0.479556 -0.42626,-0.905828 -0.90583,-0.905828 H 321.5288 c -0.47956,0 -0.90584,0.426272 -0.90584,0.905828 v 59.199182 c 0,0.47956 0.47956,0.90584 0.90584,0.90584 h 11.34962 c 0.47957,0 0.90583,-0.42628 0.90583,-0.90584 v -25.31014 h 17.63721 l -0.10658,25.31017 c 0,0.47957 0.42628,0.90585 0.90584,0.90585 h 11.34962 c 0.47956,0 0.90584,-0.42628 0.90584,-0.90585 V 93.325321 c 0,-0.479556 -0.42628,-0.905836 -0.90584,-0.905836 z m -100.54803,26.21601 v 30.58535 c 0,0.21314 -0.0533,0.58614 -0.3197,0.69271 0,0 -6.66057,4.74232 -17.6372,4.74232 -13.26787,0 -28.98683,-4.15619 -28.98683,-31.54447 0,-27.388275 13.74743,-33.036443 27.17515,-32.983158 11.61605,0 16.30509,2.61094 17.05107,3.090505 0.21314,0.266416 0.31971,0.479556 0.31971,0.745981 l -2.23795,9.484652 c 0,0.47957 -0.47956,1.0657 -1.0657,0.90584 -1.91824,-0.58613 -4.7956,-1.75839 -11.56275,-1.75839 -7.83283,0 -16.2518,2.23795 -16.2518,19.87515 0,17.63721 7.99269,19.7153 13.74742,19.7153 4.90218,0 6.66058,-0.58613 6.66058,-0.58613 v -12.25546 h -7.83284 c -0.58613,0 -1.0124,-0.42628 -1.0124,-0.90584 v -9.80436 c 0,-0.47956 0.42627,-0.90584 1.0124,-0.90584 h 19.92843 c 0.58613,0 1.01241,0.42628 1.01241,0.90584 z"
           id="path71" />
      </g>
    </g>
  </g>
</svg>
